<svg width="300" height="60" xmlns="http://www.w3.org/2000/svg"><rect x="0" y="0" width="10" height="30" fill="red"/><rect x="10" y="0" width="10" height="30" fill="red"/><rect x="20" y="0" width="10" height="30" fill="yellow"/><rect x="30" y="0" width="10" height="30" fill="yellow"/><rect x="40" y="0" width="10" height="30" fill="yellow"/><rect x="50" y="0" width="10" height="30" fill="red"/><rect x="60" y="0" width="10" height="30" fill="red"/><rect x="70" y="0" width="10" height="30" fill="yellow"/><rect x="80" y="0" width="10" height="30" fill="yellow"/><rect x="90" y="0" width="10" height="30" fill="yellow"/>
        <rect x="110" y="5" width="10" height="10" fill="red" />
        <text x="125" y="15" font-size="10">Alpha-Helix (H)</text>

        <rect x="110" y="20" width="10" height="10" fill="yellow" />
        <text x="125" y="30" font-size="10">Beta-Sheet (E)</text>

        <rect x="110" y="35" width="10" height="10" fill="gray" />
        <text x="125" y="45" font-size="10">Coil (C)</text>
    </svg>